<?xml version="1.0" encoding="UTF-8"?>
<svg xmlns="http://www.w3.org/2000/svg" xmlns:xlink="http://www.w3.org/1999/xlink" width="72px" height="72px" viewBox="0 0 72 72" version="1.1">
<g id="surface1">
<path style=" stroke:none;fill-rule:nonzero;fill:rgb(54.117647%,70.588235%,97.254902%);fill-opacity:1;" d="M 42.261719 69.050781 L 29.761719 56.863281 L 56.605469 29.457031 L 69.542969 42.136719 Z M 42.261719 69.050781 "/>
<path style=" stroke:none;fill-rule:nonzero;fill:rgb(25.882353%,52.156863%,95.686275%);fill-opacity:1;" d="M 42.3125 15.171875 L 29.863281 2.457031 L 2.632812 29.425781 C -0.878906 32.9375 -0.878906 38.628906 2.632812 42.140625 L 29.453125 69.136719 L 42.132812 57.273438 L 21.699219 35.785156 Z M 42.3125 15.171875 "/>
<path style=" stroke:none;fill-rule:nonzero;fill:rgb(54.117647%,70.588235%,97.254902%);fill-opacity:1;" d="M 69.363281 29.636719 L 42.363281 2.636719 C 38.847656 -0.878906 33.152344 -0.878906 29.636719 2.636719 C 26.121094 6.148438 26.121094 11.847656 29.636719 15.363281 L 56.636719 42.363281 C 60.152344 45.875 65.847656 45.875 69.363281 42.363281 C 72.878906 38.847656 72.878906 33.148438 69.363281 29.636719 Z M 69.363281 29.636719 "/>
<path style=" stroke:none;fill-rule:nonzero;fill:rgb(14.117647%,43.529412%,85.882353%);fill-opacity:1;" d="M 44.589844 63.207031 C 44.589844 68.0625 40.652344 72 35.792969 72 C 30.9375 72 26.996094 68.0625 26.996094 63.207031 C 26.996094 58.347656 30.9375 54.410156 35.792969 54.410156 C 40.652344 54.410156 44.589844 58.347656 44.589844 63.207031 Z M 44.589844 63.207031 "/>
</g>
</svg>
