<?xml version="1.0" encoding="UTF-8"?>
<svg xmlns="http://www.w3.org/2000/svg" xmlns:xlink="http://www.w3.org/1999/xlink" width="72px" height="72px" viewBox="0 0 72 72" version="1.1">
<g id="surface1">
<path style=" stroke:none;fill-rule:nonzero;fill:rgb(70.196078%,40%,96.470588%);fill-opacity:1;" d="M 47.304688 35.84375 C 47.175781 30.390625 42.558594 26.050781 36.945312 26.117188 L 10.226562 26.117188 L 10.226562 45.566406 L 27.53125 45.566406 L 27.53125 61.925781 C 27.230469 67.1875 31.375 71.695312 36.789062 71.984375 C 36.90625 71.992188 37.027344 71.996094 37.144531 71.996094 C 42.8125 71.941406 47.359375 67.433594 47.300781 61.925781 Z M 47.304688 35.84375 "/>
<path style=" stroke:none;fill-rule:nonzero;fill:rgb(51.764706%,18.823529%,80.784314%);fill-opacity:1;" d="M 20.21875 35.960938 C 20.21875 41.386719 15.695312 45.785156 10.109375 45.785156 C 4.527344 45.785156 0 41.386719 0 35.960938 C 0 30.53125 4.527344 26.132812 10.109375 26.132812 C 15.695312 26.132812 20.21875 30.53125 20.21875 35.960938 Z M 20.21875 35.960938 "/>
<path style=" stroke:none;fill-rule:nonzero;fill:rgb(77.254902%,54.117647%,97.254902%);fill-opacity:1;" d="M 71.972656 9.777344 C 71.917969 4.363281 67.386719 0 61.8125 0 L 34.488281 0 C 29.296875 0.507812 25.347656 4.753906 25.347656 9.828125 C 25.347656 14.898438 29.296875 19.140625 34.488281 19.648438 L 51.992188 19.648438 L 51.992188 35.992188 C 51.769531 41.359375 56.0625 45.886719 61.582031 46.105469 C 67.105469 46.324219 71.765625 42.148438 71.988281 36.785156 C 72 36.523438 72 36.257812 71.988281 35.996094 Z M 71.972656 9.777344 "/>
</g>
</svg>
