<?xml version="1.0" encoding="UTF-8"?>
<svg xmlns="http://www.w3.org/2000/svg" xmlns:xlink="http://www.w3.org/1999/xlink" width="72px" height="72px" viewBox="0 0 72 72" version="1.1">
<g id="surface1">
<path style=" stroke:none;fill-rule:nonzero;fill:rgb(25.882353%,50.196078%,93.72549%);fill-opacity:1;" d="M 57.601562 36.527344 C 57.601562 35.039062 57.457031 33.503906 57.214844 32.0625 L 36.433594 32.0625 L 36.433594 40.558594 L 48.335938 40.558594 C 47.855469 43.296875 46.273438 45.695312 43.921875 47.230469 L 51.023438 52.753906 C 55.199219 48.863281 57.601562 43.199219 57.601562 36.527344 Z M 57.601562 36.527344 "/>
<path style=" stroke:none;fill-rule:nonzero;fill:rgb(20.392157%,63.921569%,32.54902%);fill-opacity:1;" d="M 36.433594 58.03125 C 42.382812 58.03125 47.375 56.0625 51.023438 52.703125 L 43.921875 47.230469 C 41.953125 48.574219 39.40625 49.34375 36.433594 49.34375 C 30.671875 49.34375 25.824219 45.457031 24.046875 40.273438 L 16.753906 45.886719 C 20.496094 53.328125 28.078125 58.03125 36.433594 58.03125 Z M 36.433594 58.03125 "/>
<path style=" stroke:none;fill-rule:nonzero;fill:rgb(96.470588%,71.764706%,1.568627%);fill-opacity:1;" d="M 24.046875 40.222656 C 23.136719 37.488281 23.136719 34.511719 24.046875 31.777344 L 16.753906 26.113281 C 13.632812 32.351562 13.632812 39.695312 16.753906 45.886719 Z M 24.046875 40.222656 "/>
<path style=" stroke:none;fill-rule:nonzero;fill:rgb(89.803922%,26.27451%,20.784314%);fill-opacity:1;" d="M 36.433594 22.703125 C 39.550781 22.65625 42.625 23.855469 44.878906 26.015625 L 51.167969 19.679688 C 47.183594 15.9375 41.902344 13.921875 36.433594 13.96875 C 28.078125 13.96875 20.496094 18.671875 16.753906 26.113281 L 24.046875 31.777344 C 25.824219 26.542969 30.671875 22.703125 36.433594 22.703125 Z M 36.433594 22.703125 "/>
</g>
</svg>
