<?xml version="1.0" encoding="UTF-8"?>
<svg xmlns="http://www.w3.org/2000/svg" xmlns:xlink="http://www.w3.org/1999/xlink" width="72px" height="72px" viewBox="0 0 72 72" version="1.1">
<g id="surface1">
<path style=" stroke:none;fill-rule:nonzero;fill:rgb(97.647059%,67.058824%,0%);fill-opacity:1;" d="M 68.453125 62.855469 C 68.464844 65.417969 67.378906 67.859375 65.46875 69.5625 C 63.558594 71.269531 61.011719 72.074219 58.46875 71.769531 C 53.894531 71.09375 50.542969 67.113281 50.652344 62.488281 L 50.652344 9.339844 C 50.542969 4.714844 53.902344 0.730469 58.484375 0.0625 C 61.023438 -0.238281 63.570312 0.570312 65.476562 2.273438 C 67.378906 3.976562 68.464844 6.417969 68.453125 8.976562 Z M 68.453125 62.855469 "/>
<path style=" stroke:none;fill-rule:nonzero;fill:rgb(89.019608%,45.490196%,0%);fill-opacity:1;" d="M 12.449219 54.050781 C 17.363281 54.050781 21.347656 58.03125 21.347656 62.949219 C 21.347656 67.863281 17.363281 71.847656 12.449219 71.847656 C 7.535156 71.847656 3.550781 67.863281 3.550781 62.949219 C 3.550781 58.03125 7.535156 54.050781 12.449219 54.050781 Z M 35.863281 27.078125 C 30.925781 27.347656 27.09375 31.492188 27.207031 36.433594 L 27.207031 60.335938 C 27.207031 66.824219 30.0625 70.761719 34.246094 71.601562 C 36.871094 72.132812 39.597656 71.457031 41.667969 69.757812 C 43.738281 68.058594 44.9375 65.519531 44.929688 62.839844 L 44.929688 36.023438 C 44.933594 33.628906 43.976562 31.332031 42.269531 29.648438 C 40.566406 27.96875 38.257812 27.039062 35.863281 27.078125 Z M 35.863281 27.078125 "/>
</g>
</svg>
