<?xml version="1.0" encoding="UTF-8"?>
<svg xmlns="http://www.w3.org/2000/svg" xmlns:xlink="http://www.w3.org/1999/xlink" width="72px" height="72px" viewBox="0 0 72 72" version="1.1">
<g id="surface1">
<path style=" stroke:none;fill-rule:nonzero;fill:rgb(0%,0%,0%);fill-opacity:1;" d="M 62.84375 22.710938 C 52.339844 4.078125 21.53125 0 21.53125 0 C 21.53125 0 35.746094 15.523438 17.578125 27.800781 C 6.089844 35.550781 1.546875 45.617188 6.46875 56.613281 C 10.238281 65.039062 18.210938 68.46875 26.804688 69.746094 C 22.699219 62 25.875 52.535156 26.226562 51.523438 C 34.257812 63.671875 49.433594 51.523438 41.808594 38.316406 C 51.796875 40.480469 53.285156 57.808594 45.621094 68.621094 C 56.941406 65.066406 64.476562 56.121094 66.546875 48.148438 C 68.726562 39.808594 67.066406 30.160156 62.847656 22.710938 Z M 62.84375 22.710938 "/>
</g>
</svg>
