<?xml version="1.0" encoding="UTF-8"?>
<svg xmlns="http://www.w3.org/2000/svg" xmlns:xlink="http://www.w3.org/1999/xlink" width="72px" height="72px" viewBox="0 0 72 72" version="1.1">
<g id="surface1">
<path style=" stroke:none;fill-rule:nonzero;fill:rgb(20.392157%,65.882353%,32.54902%);fill-opacity:1;" d="M 35.847656 0 C 33.523438 0 31.390625 1.28125 30.296875 3.335938 C 29.207031 5.386719 29.332031 7.871094 30.628906 9.800781 L 33.316406 7.117188 C 33.226562 6.851562 33.183594 6.570312 33.183594 6.289062 C 33.183594 4.824219 34.371094 3.632812 35.835938 3.632812 C 37.300781 3.632812 38.488281 4.824219 38.488281 6.289062 C 38.488281 7.753906 37.300781 8.941406 35.835938 8.941406 C 35.554688 8.941406 35.277344 8.894531 35.011719 8.808594 L 32.328125 11.492188 C 34.5625 13.007812 37.515625 12.925781 39.664062 11.292969 C 41.8125 9.65625 42.675781 6.832031 41.8125 4.273438 C 40.949219 1.71875 38.546875 -0.00390625 35.847656 0 Z M 35.847656 0 "/>
<path style=" stroke:none;fill-rule:nonzero;fill:rgb(98.431373%,73.72549%,1.568627%);fill-opacity:1;" d="M 33.347656 18.324219 C 33.351562 16.199219 32.664062 14.132812 31.386719 12.433594 L 27.902344 15.917969 C 28.992188 17.914062 28.597656 20.390625 26.945312 21.953125 L 28.839844 26.582031 C 31.648438 24.773438 33.34375 21.664062 33.347656 18.324219 Z M 33.347656 18.324219 "/>
<path style=" stroke:none;fill-rule:nonzero;fill:rgb(91.764706%,26.27451%,20.784314%);fill-opacity:1;" d="M 23.601562 23.324219 L 23.511719 23.324219 C 21.371094 23.324219 19.46875 21.964844 18.777344 19.941406 C 18.085938 17.917969 18.753906 15.675781 20.445312 14.367188 C 22.136719 13.058594 24.472656 12.964844 26.257812 14.140625 L 29.710938 10.6875 C 26.355469 7.964844 21.613281 7.757812 18.027344 10.171875 C 14.445312 12.585938 12.855469 17.058594 14.117188 21.191406 C 15.378906 25.324219 19.191406 28.152344 23.511719 28.15625 C 24.179688 28.15625 24.84375 28.089844 25.496094 27.957031 Z M 23.601562 23.324219 "/>
<path style=" stroke:none;fill-rule:nonzero;fill:rgb(25.882353%,52.156863%,95.686275%);fill-opacity:1;" d="M 35.980469 27.328125 C 33.796875 27.328125 31.628906 27.644531 29.539062 28.273438 L 32.300781 35.023438 C 33.503906 34.726562 34.738281 34.574219 35.976562 34.574219 C 43.15625 34.578125 49.335938 39.652344 50.734375 46.695312 C 52.132812 53.734375 48.363281 60.785156 41.730469 63.53125 C 35.097656 66.277344 27.445312 63.957031 23.457031 57.988281 C 19.46875 52.015625 20.253906 44.058594 25.332031 38.984375 C 26.390625 37.929688 27.597656 37.035156 28.921875 36.332031 L 26.1875 29.601562 C 16 34.589844 11.179688 46.425781 14.976562 57.109375 C 18.777344 67.796875 29.988281 73.933594 41.039062 71.375 C 52.085938 68.8125 59.457031 58.371094 58.167969 47.101562 C 56.878906 35.832031 47.339844 27.324219 36 27.324219 Z M 35.980469 27.328125 "/>
</g>
</svg>
