<?xml version="1.0" encoding="UTF-8"?>
<svg xmlns="http://www.w3.org/2000/svg" xmlns:xlink="http://www.w3.org/1999/xlink" width="500px" height="217px" viewBox="0 0 499 217" version="1.1">
<defs>
<linearGradient id="linear0" gradientUnits="userSpaceOnUse" x1="0" y1="0" x2="1" y2="0" gradientTransform="matrix(55.352194,40.042164,-40.029346,55.369918,395.165696,62.496301)">
<stop offset="0" style="stop-color:rgb(12.941176%,85.882353%,66.666667%);stop-opacity:1;"/>
<stop offset="0.253764" style="stop-color:rgb(0%,70.588235%,93.72549%);stop-opacity:1;"/>
<stop offset="0.309135" style="stop-color:rgb(0%,70.588235%,93.72549%);stop-opacity:1;"/>
<stop offset="0.376491" style="stop-color:rgb(0%,70.588235%,93.72549%);stop-opacity:1;"/>
<stop offset="0.645893" style="stop-color:rgb(2.745098%,40.784314%,86.666667%);stop-opacity:1;"/>
<stop offset="1" style="stop-color:rgb(37.254902%,10.196078%,89.803922%);stop-opacity:1;"/>
</linearGradient>
</defs>
<g id="surface1">
<path style=" stroke:none;fill-rule:nonzero;fill:rgb(0%,1.176471%,4.705882%);fill-opacity:1;" d="M 172.132812 108.429688 L 172.132812 126.710938 C 169.949219 130.253906 165.726562 133.796875 161.140625 133.796875 C 156.21875 133.796875 153.160156 130.578125 153.160156 125.394531 C 153.160156 118.167969 159.476562 114.320312 164.976562 111.773438 Z M 183.945312 133.453125 C 181.472656 133.453125 180.992188 131.636719 180.992188 128.496094 L 180.992188 97.0625 C 180.992188 86.359375 174.960938 79.96875 164.867188 79.96875 C 152.808594 79.96875 147.328125 89.265625 147.242188 98.480469 L 147.238281 98.859375 L 155.257812 98.859375 L 155.253906 98.480469 C 155.207031 95.195312 156.332031 92.136719 158.335938 90.09375 C 159.972656 88.425781 162.082031 87.542969 164.441406 87.542969 C 169.257812 87.542969 172.132812 91.320312 172.132812 97.648438 L 172.132812 100.582031 L 162.449219 105.179688 C 151.46875 110.316406 144.273438 114.492188 144.273438 125.328125 C 144.273438 134.839844 150.257812 141.234375 159.167969 141.234375 C 164.21875 141.234375 169.035156 138.734375 172.808594 134.179688 C 174.089844 138.675781 177.433594 141.234375 182.074219 141.234375 C 183.707031 141.234375 185.4375 140.875 187.085938 140.199219 L 187.316406 140.101562 L 187.316406 132.363281 L 186.765625 132.667969 C 185.96875 133.101562 185.015625 133.535156 183.945312 133.453125 "/>
<path style=" stroke:none;fill-rule:nonzero;fill:rgb(0%,1.176471%,4.705882%);fill-opacity:1;" d="M 229.078125 62.570312 L 220.222656 62.570312 L 219.910156 81.136719 L 212.207031 81.136719 L 212.207031 89.15625 L 220.222656 89.15625 L 220.222656 127.699219 C 220.222656 136.347656 224.261719 141.113281 231.59375 141.113281 C 234.476562 141.113281 237.316406 140.304688 240.277344 138.640625 L 240.46875 138.535156 L 240.46875 130.539062 L 239.859375 131.035156 C 237.960938 132.589844 235.800781 133.445312 233.777344 133.445312 C 229.894531 133.445312 229.078125 130.214844 229.078125 127.5 L 229.078125 89.15625 L 241.734375 89.15625 L 241.734375 81.136719 L 229.078125 81.136719 Z M 229.078125 62.570312 "/>
<path style=" stroke:none;fill-rule:nonzero;fill:rgb(0%,1.176471%,4.705882%);fill-opacity:1;" d="M 126.152344 126.121094 C 122.808594 130.96875 118.972656 133.636719 115.332031 133.636719 C 110.558594 133.636719 108.855469 128.953125 108.855469 124.566406 L 108.855469 81.136719 L 99.996094 81.136719 L 99.996094 124.835938 C 99.996094 135.03125 104.632812 140.875 112.71875 140.875 C 119.367188 140.875 123.738281 137.253906 126.371094 133.871094 L 126.519531 139.792969 L 135.011719 139.792969 L 135.011719 81.136719 L 126.152344 81.136719 Z M 126.152344 126.121094 "/>
<path style=" stroke:none;fill-rule:nonzero;fill:rgb(0%,1.176471%,4.705882%);fill-opacity:1;" d="M 79.75 94.691406 L 79.75 126.886719 C 77.308594 131.300781 74.34375 133.359375 70.429688 133.359375 C 63.179688 133.359375 59.503906 125.703125 59.503906 110.597656 C 59.503906 96.078125 63.640625 87.753906 70.847656 87.753906 C 74.832031 87.753906 78.320312 90.472656 79.75 94.691406 M 80.773438 86.480469 C 78.5625 82.375 74.480469 80.050781 69.355469 80.050781 C 64.425781 80.050781 59.894531 82.492188 56.589844 86.921875 C 52.550781 92.339844 50.5 100.308594 50.5 110.601562 C 50.5 133.128906 59.59375 141.152344 68.105469 141.152344 C 72.917969 141.152344 77.09375 139.171875 79.75 135.671875 L 79.75 168.484375 L 88.609375 168.484375 L 88.609375 81.136719 L 81.019531 81.136719 Z M 80.773438 86.480469 "/>
<path style=" stroke:none;fill-rule:nonzero;fill:rgb(0%,1.176471%,4.705882%);fill-opacity:1;" d="M 194.488281 140.214844 L 203.347656 140.214844 L 203.347656 53.710938 L 194.488281 53.710938 Z M 194.488281 140.214844 "/>
<path style=" stroke:none;fill-rule:nonzero;fill:rgb(0%,1.176471%,4.705882%);fill-opacity:1;" d="M 283.496094 139.792969 L 292.355469 139.792969 L 292.355469 81.136719 L 283.496094 81.136719 Z M 283.496094 139.792969 "/>
<path style=" stroke:none;fill-rule:nonzero;fill:rgb(0%,1.176471%,4.705882%);fill-opacity:1;" d="M 283.496094 72.699219 L 292.355469 72.699219 L 292.355469 62.570312 L 283.496094 62.570312 Z M 283.496094 72.699219 "/>
<path style=" stroke:none;fill-rule:nonzero;fill:rgb(0%,1.176471%,4.705882%);fill-opacity:1;" d="M 259.089844 88.089844 L 258.648438 81.136719 L 250.171875 81.136719 L 250.171875 140.214844 L 259.03125 140.214844 L 259.03125 97.726562 C 259.03125 97.726562 268.207031 88.539062 273.140625 88.535156 L 275.058594 88.703125 L 275.058594 79.871094 L 272.835938 79.871094 C 266.589844 80.125 263.160156 82.082031 259.089844 88.089844 "/>
<path style=" stroke:none;fill-rule:nonzero;fill:rgb(0%,1.176471%,4.705882%);fill-opacity:1;" d="M 363.917969 105.128906 L 363.691406 105.4375 L 363.871094 105.105469 L 363.867188 105.101562 C 358.347656 102.253906 354.4375 99.851562 354.4375 94.882812 C 354.4375 90.578125 357.484375 87.6875 362.019531 87.6875 C 364.445312 87.6875 366.488281 88.53125 367.929688 90.125 C 369.699219 92.078125 370.519531 95.113281 370.1875 98.445312 L 370.144531 98.859375 L 378.289062 98.859375 L 378.304688 98.503906 C 378.570312 92.972656 376.972656 88.09375 373.800781 84.765625 C 370.890625 81.710938 366.84375 80.097656 362.101562 80.097656 C 352.609375 80.097656 345.980469 86.382812 345.980469 95.386719 C 345.980469 105.191406 353.839844 109.398438 359.578125 112.46875 C 365.289062 115.574219 370.6875 118.503906 370.6875 124.621094 C 370.6875 129.78125 366.933594 133.523438 361.765625 133.523438 C 356.140625 133.523438 352.089844 128.792969 351.925781 122.015625 L 351.917969 121.648438 L 343.710938 121.648438 L 343.722656 122.03125 C 343.984375 133.9375 350.902344 141.332031 361.765625 141.332031 C 372.160156 141.332031 379.140625 134.449219 379.140625 124.203125 C 379.140625 113.195312 371.054688 108.910156 363.917969 105.128906 "/>
<path style=" stroke:none;fill-rule:nonzero;fill:rgb(0%,1.176471%,4.705882%);fill-opacity:1;" d="M 329.628906 121.648438 C 329.449219 125.820312 328.3125 129.261719 326.378906 131.28125 C 325.003906 132.714844 323.257812 133.445312 321.191406 133.445312 C 314.472656 133.445312 310.917969 125.609375 310.917969 110.789062 C 310.917969 96.035156 314.597656 87.914062 321.277344 87.914062 C 323.199219 87.914062 324.828125 88.589844 326.117188 89.921875 C 327.921875 91.792969 329.007812 94.984375 329.203125 98.859375 L 337.46875 98.859375 C 337.371094 92.726562 335.722656 87.8125 332.621094 84.582031 C 329.886719 81.734375 326.183594 80.289062 321.609375 80.289062 C 309.082031 80.289062 302.1875 91.089844 302.1875 110.703125 C 302.1875 130.316406 308.875 141.117188 321.027344 141.117188 C 330.808594 141.117188 336.929688 133.890625 337.703125 121.648438 Z M 329.628906 121.648438 "/>
<path style=" stroke:none;fill-rule:nonzero;fill:rgb(0%,1.176471%,4.705882%);fill-opacity:1;" d="M 390.171875 134.980469 C 389.96875 135.09375 389.667969 135.152344 389.273438 135.152344 L 388.113281 135.152344 L 388.113281 133.464844 L 389.273438 133.464844 C 389.667969 133.464844 389.96875 133.53125 390.171875 133.667969 C 390.378906 133.804688 390.480469 134.035156 390.480469 134.351562 C 390.480469 134.660156 390.378906 134.863281 390.171875 134.980469 M 391.519531 135.339844 C 391.703125 135.011719 391.792969 134.632812 391.792969 134.199219 C 391.792969 133.574219 391.605469 133.085938 391.230469 132.730469 C 390.851562 132.375 390.300781 132.195312 389.578125 132.195312 L 386.425781 132.195312 L 386.425781 138.527344 L 388.113281 138.527344 L 388.113281 136.417969 L 389.402344 136.417969 L 390.550781 138.527344 L 392.011719 138.527344 L 390.664062 136.070312 C 391.054688 135.910156 391.34375 135.667969 391.519531 135.339844 "/>
<path style=" stroke:none;fill-rule:nonzero;fill:rgb(0%,1.176471%,4.705882%);fill-opacity:1;" d="M 393.125 137.199219 C 392.898438 137.753906 392.585938 138.234375 392.1875 138.636719 C 391.792969 139.039062 391.328125 139.347656 390.789062 139.5625 C 390.246094 139.78125 389.675781 139.886719 389.074219 139.886719 C 388.453125 139.886719 387.875 139.78125 387.335938 139.5625 C 386.792969 139.347656 386.328125 139.039062 385.933594 138.636719 C 385.535156 138.234375 385.222656 137.753906 384.996094 137.199219 C 384.761719 136.648438 384.648438 136.03125 384.648438 135.355469 C 384.648438 134.695312 384.761719 134.085938 384.996094 133.53125 C 385.222656 132.976562 385.535156 132.5 385.933594 132.097656 C 386.328125 131.691406 386.792969 131.386719 387.335938 131.167969 C 387.875 130.953125 388.453125 130.84375 389.074219 130.84375 C 389.675781 130.84375 390.246094 130.953125 390.789062 131.167969 C 391.328125 131.386719 391.792969 131.691406 392.1875 132.097656 C 392.585938 132.5 392.898438 132.976562 393.125 133.53125 C 393.359375 134.085938 393.472656 134.695312 393.472656 135.355469 C 393.472656 136.03125 393.359375 136.648438 393.125 137.199219 M 394.207031 133.078125 C 393.917969 132.394531 393.523438 131.808594 393.019531 131.320312 C 392.515625 130.832031 391.921875 130.449219 391.238281 130.175781 C 390.554688 129.90625 389.820312 129.765625 389.027344 129.765625 C 388.234375 129.765625 387.5 129.90625 386.816406 130.175781 C 386.136719 130.449219 385.539062 130.832031 385.035156 131.320312 C 384.535156 131.808594 384.140625 132.394531 383.851562 133.078125 C 383.5625 133.761719 383.421875 134.519531 383.421875 135.355469 C 383.421875 136.191406 383.5625 136.953125 383.851562 137.644531 C 384.140625 138.335938 384.535156 138.925781 385.035156 139.425781 C 385.539062 139.921875 386.136719 140.304688 386.816406 140.578125 C 387.5 140.851562 388.234375 140.988281 389.027344 140.988281 C 389.820312 140.988281 390.554688 140.851562 391.238281 140.578125 C 391.921875 140.304688 392.515625 139.921875 393.019531 139.425781 C 393.523438 138.925781 393.917969 138.335938 394.207031 137.644531 C 394.492188 136.953125 394.636719 136.191406 394.636719 135.355469 C 394.636719 134.519531 394.492188 133.761719 394.207031 133.078125 "/>
<path style=" stroke:none;fill-rule:nonzero;fill:url(#linear0);" d="M 443 62.148438 L 435.371094 89.15625 L 435.277344 89.15625 L 427.089844 62.148438 L 409.199219 62.148438 L 403 73.167969 L 396.441406 62.148438 L 387.242188 62.148438 L 397.941406 79.464844 L 386.199219 98.859375 L 394.914062 98.859375 L 402.402344 86.09375 L 410.15625 98.859375 L 423.96875 98.859375 L 423.96875 73.542969 L 424.066406 73.542969 C 424.257812 74.601562 424.441406 75.507812 424.605469 76.265625 C 424.777344 77.019531 424.941406 77.71875 425.101562 78.359375 C 425.261719 79.003906 425.433594 79.613281 425.617188 80.191406 C 425.804688 80.769531 425.992188 81.402344 426.183594 82.09375 L 431.605469 98.859375 L 438.898438 98.859375 L 444.25 82.101562 C 444.644531 80.753906 445.007812 79.453125 445.347656 78.203125 C 445.6875 76.949219 445.980469 75.539062 446.230469 73.964844 L 446.328125 73.964844 L 446.328125 98.859375 L 453.917969 98.859375 L 453.917969 62.148438 Z M 406.847656 79.445312 L 416.375 63.628906 L 416.375 94.957031 Z M 406.847656 79.445312 "/>
</g>
</svg>
