<?xml version="1.0" encoding="UTF-8"?>
<svg xmlns="http://www.w3.org/2000/svg" xmlns:xlink="http://www.w3.org/1999/xlink" width="72px" height="43px" viewBox="0 0 71 43" version="1.1">
<g id="surface1">
<path style=" stroke:none;fill-rule:nonzero;fill:rgb(100%,39.215686%,17.647059%);fill-opacity:1;" d="M 61.226562 21.21875 C 61.226562 22.550781 60.5625 22.757812 58.886719 22.757812 C 57.105469 22.757812 56.796875 22.449219 56.59375 21.113281 C 56.238281 17.671875 53.945312 14.742188 50.082031 14.4375 C 48.859375 14.332031 48.554688 13.871094 48.554688 12.328125 C 48.554688 10.890625 48.757812 10.222656 49.878906 10.222656 C 56.59375 10.222656 61.226562 15.667969 61.226562 21.21875 Z M 71 21.21875 C 71 10.894531 64.078125 0 48.09375 0 L 16.324219 0 C 15.683594 0 15.289062 0.339844 15.289062 0.929688 C 15.289062 1.25 15.527344 1.539062 15.742188 1.710938 C 16.90625 2.632812 18.601562 3.652344 20.878906 4.796875 C 23.082031 5.910156 24.789062 6.636719 26.515625 7.34375 C 27.230469 7.636719 27.515625 7.957031 27.515625 8.382812 C 27.515625 8.941406 27.125 9.296875 26.320312 9.296875 L 1.105469 9.296875 C 0.359375 9.296875 0 9.78125 0 10.269531 C 0 10.6875 0.144531 11.019531 0.496094 11.390625 C 2.542969 13.546875 5.796875 16.144531 10.550781 19.144531 C 14.722656 21.777344 19.871094 24.617188 23.957031 26.59375 C 24.644531 26.929688 24.882812 27.3125 24.867188 27.710938 C 24.847656 28.171875 24.488281 28.5625 23.691406 28.5625 L 12.132812 28.5625 C 11.476562 28.5625 11.113281 28.910156 11.113281 29.445312 C 11.113281 29.746094 11.351562 30.121094 11.660156 30.410156 C 14.289062 32.816406 18.492188 35.449219 24.09375 37.855469 C 31.570312 41.070312 39.171875 43 47.714844 43 C 63.902344 43 71 30.773438 71 21.21875 Z M 49.878906 35.859375 C 41.9375 35.859375 35.324219 29.332031 35.324219 21.21875 C 35.324219 13.203125 41.9375 6.78125 49.878906 6.78125 C 58.019531 6.78125 64.382812 13.207031 64.382812 21.21875 C 64.382812 29.332031 58.019531 35.859375 49.878906 35.859375 Z M 49.878906 35.859375 "/>
</g>
</svg>
