<?xml version="1.0" encoding="UTF-8"?>
<svg xmlns="http://www.w3.org/2000/svg" xmlns:xlink="http://www.w3.org/1999/xlink" width="72px" height="72px" viewBox="0 0 72 72" version="1.1">
<g id="surface1">
<path style=" stroke:none;fill-rule:nonzero;fill:rgb(95.686275%,45.098039%,16.470588%);fill-opacity:1;" d="M 66.285156 16.160156 C 67.234375 17.742188 68.074219 19.394531 68.796875 21.105469 C 69.519531 22.816406 70.125 24.582031 70.605469 26.386719 C 71.085938 28.195312 71.445312 30.035156 71.675781 31.894531 C 71.902344 33.753906 72.007812 35.628906 71.980469 37.507812 C 71.957031 39.382812 71.804688 41.253906 71.523438 43.105469 C 71.246094 44.960938 70.839844 46.789062 70.308594 48.578125 C 69.78125 50.367188 69.128906 52.113281 68.359375 53.804688 C 67.59375 55.492188 66.710938 57.121094 65.71875 58.671875 C 65.046875 59.726562 64.324219 60.742188 63.554688 61.71875 C 62.785156 62.695312 61.972656 63.628906 61.117188 64.523438 C 60.257812 65.414062 59.363281 66.257812 58.429688 67.054688 C 57.492188 67.851562 56.523438 68.601562 55.519531 69.292969 C 54.769531 69.78125 54.339844 69.644531 54.140625 69.464844 C 53.753906 69.113281 54.371094 67.910156 54.371094 67.910156 L 54.359375 67.910156 C 55.800781 64.832031 56.648438 60.453125 56.648438 56.316406 C 56.648438 55.179688 56.578125 54.058594 56.460938 52.960938 C 55.980469 44.820312 50.148438 38.253906 41.160156 30.855469 C 37.503906 27.839844 34.683594 25.183594 32.695312 22.625 C 32.222656 22.03125 31.816406 21.445312 31.441406 20.851562 L 32.222656 21.945312 C 30.597656 19.652344 29.625 16.773438 29.625 13.644531 C 29.625 6.128906 35.226562 0.0390625 42.144531 0.00390625 C 42.691406 0.0078125 43.234375 0.03125 43.78125 0.078125 C 44.324219 0.125 44.863281 0.191406 45.402344 0.28125 C 45.941406 0.367188 46.480469 0.476562 47.011719 0.609375 C 47.542969 0.738281 48.066406 0.890625 48.589844 1.0625 L 50.480469 1.742188 C 56.867188 4.449219 62.4375 9.78125 66.285156 16.160156 Z M 66.285156 16.160156 "/>
<path style=" stroke:none;fill-rule:nonzero;fill:rgb(3.529412%,14.509804%,25.098039%);fill-opacity:1;" d="M 39.003906 43.972656 C 39.886719 44.695312 40.691406 45.527344 41.394531 46.449219 C 42.101562 47.371094 42.703125 48.371094 43.191406 49.441406 C 43.683594 50.507812 44.054688 51.628906 44.304688 52.789062 C 44.550781 53.945312 44.675781 55.128906 44.667969 56.316406 C 44.675781 57.835938 44.472656 59.347656 44.066406 60.804688 C 43.660156 62.257812 43.054688 63.644531 42.269531 64.910156 C 41.480469 66.179688 40.523438 67.316406 39.425781 68.289062 C 38.328125 69.261719 37.101562 70.054688 35.785156 70.644531 L 35.777344 70.644531 C 35.777344 70.644531 25.109375 75.769531 12.671875 66.03125 L 12.679688 66.03125 C 12.058594 65.554688 11.457031 65.050781 10.871094 64.519531 C 10.289062 63.988281 9.726562 63.433594 9.183594 62.855469 C 8.644531 62.277344 8.125 61.671875 7.632812 61.050781 C 7.136719 60.425781 6.667969 59.78125 6.222656 59.117188 C 5.125 57.386719 4.164062 55.570312 3.34375 53.675781 C 2.523438 51.78125 1.851562 49.824219 1.328125 47.8125 C 0.804688 45.804688 0.4375 43.753906 0.226562 41.683594 C 0.015625 39.613281 -0.0390625 37.523438 0.0664062 35.445312 C 0.226562 32.167969 0.78125 28.925781 1.714844 25.800781 C 2.648438 22.675781 3.953125 19.6875 5.597656 16.914062 C 7.242188 14.140625 9.214844 11.597656 11.464844 9.355469 C 13.714844 7.113281 16.226562 5.1875 18.933594 3.621094 C 20.75 2.703125 19.914062 4.5625 19.914062 4.5625 L 19.914062 4.578125 C 19.484375 5.628906 19.109375 6.707031 18.804688 7.816406 C 15.445312 19.992188 21.578125 29.867188 33.375 39.023438 L 39.007812 43.96875 Z M 39.003906 43.972656 "/>
</g>
</svg>
